<svg width="106" height="39" viewBox="0 0 106 39" fill="none" xmlns="http://www.w3.org/2000/svg">
<path d="M1 5C4.75904 1.98151 13.859 -2.24439 20.1867 5C26.5145 12.2444 33.004 8.01849 35.4578 5C38.4337 2.30851 46.1554 -1.45958 53.2349 5C60.3145 11.4596 69.0281 7.69149 72.5 5C75.2932 2.78644 82.5554 -0.312551 89.259 5C95.9627 10.3126 102.546 7.21356 105 5" stroke="white"/>
<path d="M1 20C4.75904 16.9815 13.859 12.7556 20.1867 20C26.5145 27.2444 33.004 23.0185 35.4578 20C38.4337 17.3085 46.1554 13.5404 53.2349 20C60.3145 26.4596 69.0281 22.6915 72.5 20C75.2932 17.7864 82.5554 14.6874 89.259 20C95.9627 25.3126 102.546 22.2136 105 20" stroke="white"/>
<path d="M1 34C4.75904 30.9815 13.859 26.7556 20.1867 34C26.5145 41.2444 33.004 37.0185 35.4578 34C38.4337 31.3085 46.1554 27.5404 53.2349 34C60.3145 40.4596 69.0281 36.6915 72.5 34C75.2932 31.7864 82.5554 28.6874 89.259 34C95.9627 39.3126 102.546 36.2136 105 34" stroke="white"/>
</svg>
