<svg width="11" height="9" viewBox="0 0 11 9" fill="none" xmlns="http://www.w3.org/2000/svg">
<path d="M0.392858 0H10.6071C10.8244 0 11 0.182812 11 0.409091V8.59091C11 8.81719 10.8244 9 10.6071 9H0.392858C0.175558 9 0 8.81719 0 8.59091V0.409091C0 0.182812 0.175558 0 0.392858 0ZM0.883929 1.41648V8.07955H10.1161V1.41648L10.4549 1.14162L9.97243 0.496023L9.44699 0.921733H1.55179L1.02634 0.496023L0.543861 1.14162L0.883929 1.41648ZM1.55179 0.920455L5.5 4.11648L9.44821 0.920455L9.97366 0.494744L10.4561 1.14034L10.1173 1.4152L5.92355 4.81065C5.80294 4.90822 5.65457 4.96119 5.50184 4.96119C5.34912 4.96119 5.20074 4.90822 5.08013 4.81065L0.883929 1.41648L0.54509 1.14162L1.02757 0.496023L1.55179 0.920455Z" fill="white"/>
</svg>
